<svg width="20" height="20" viewBox="0 0 20 20" fill="none" xmlns="http://www.w3.org/2000/svg">
<path d="M18.7632 17.0263V10.3819C18.7632 9.84649 18.6542 9.31667 18.443 8.82468C18.2318 8.3327 17.9227 7.88882 17.5345 7.52006L11.2414 1.54275C10.8746 1.19429 10.388 0.999989 9.88207 0.999989C9.37613 0.999989 8.88951 1.19429 8.5227 1.54275L2.22862 7.52006C1.84045 7.88882 1.53135 8.3327 1.32014 8.82468C1.10892 9.31667 0.999999 9.84649 1 10.3819V17.0263C1 17.5498 1.20794 18.0518 1.57808 18.4219C1.94822 18.792 2.45023 19 2.97368 19H16.7895C17.3129 19 17.8149 18.792 18.1851 18.4219C18.5552 18.0518 18.7632 17.5498 18.7632 17.0263Z" fill="#222222" stroke="#222222" stroke-width="2" stroke-linecap="round" stroke-linejoin="round"/>
</svg>
