<svg width="36" height="36" viewBox="0 0 36 36" fill="none" xmlns="http://www.w3.org/2000/svg">
<path d="M19.5996 1C22.5769 1 24.8906 0.999126 26.7197 1.19727C28.5675 1.39746 30.0397 1.81036 31.29 2.71875C32.0541 3.27387 32.7261 3.94591 33.2812 4.70996C34.1896 5.96029 34.6025 7.43246 34.8027 9.28027C35.0009 11.1094 35 13.4231 35 16.4004V19.5996C35 22.5769 35.0009 24.8906 34.8027 26.7197C34.6025 28.5675 34.1896 30.0397 33.2812 31.29C32.7261 32.0541 32.0541 32.7261 31.29 33.2812C30.0397 34.1896 28.5675 34.6025 26.7197 34.8027C24.8906 35.0009 22.5769 35 19.5996 35H16.4004C13.4231 35 11.1094 35.0009 9.28027 34.8027C7.43246 34.6025 5.96029 34.1896 4.70996 33.2812C3.94591 32.7261 3.27387 32.0541 2.71875 31.29C1.81036 30.0397 1.39746 28.5675 1.19727 26.7197C0.999126 24.8906 1 22.5769 1 19.5996V16.4004C1 13.4231 0.999126 11.1094 1.19727 9.28027C1.39746 7.43246 1.81036 5.96029 2.71875 4.70996C3.27387 3.94591 3.94591 3.27387 4.70996 2.71875C5.96029 1.81036 7.43246 1.39746 9.28027 1.19727C11.1094 0.999126 13.4231 1 16.4004 1H19.5996Z" fill="white"/>
<path d="M19.5996 1C22.5769 1 24.8906 0.999126 26.7197 1.19727C28.5675 1.39746 30.0397 1.81036 31.29 2.71875C32.0541 3.27387 32.7261 3.94591 33.2812 4.70996C34.1896 5.96029 34.6025 7.43246 34.8027 9.28027C35.0009 11.1094 35 13.4231 35 16.4004V19.5996C35 22.5769 35.0009 24.8906 34.8027 26.7197C34.6025 28.5675 34.1896 30.0397 33.2812 31.29C32.7261 32.0541 32.0541 32.7261 31.29 33.2812C30.0397 34.1896 28.5675 34.6025 26.7197 34.8027C24.8906 35.0009 22.5769 35 19.5996 35H16.4004C13.4231 35 11.1094 35.0009 9.28027 34.8027C7.43246 34.6025 5.96029 34.1896 4.70996 33.2812C3.94591 32.7261 3.27387 32.0541 2.71875 31.29C1.81036 30.0397 1.39746 28.5675 1.19727 26.7197C0.999126 24.8906 1 22.5769 1 19.5996V16.4004C1 13.4231 0.999126 11.1094 1.19727 9.28027C1.39746 7.43246 1.81036 5.96029 2.71875 4.70996C3.27387 3.94591 3.94591 3.27387 4.70996 2.71875C5.96029 1.81036 7.43246 1.39746 9.28027 1.19727C11.1094 0.999126 13.4231 1 16.4004 1H19.5996Z" stroke="#F2F2F2" stroke-width="2"/>
<path d="M22.9091 21.2727V21.8182H13.0909V21.2727L14.1818 20.1818V16.9091C14.1818 15.2182 15.2891 13.7291 16.9091 13.2491V13.0909C16.9091 12.8016 17.024 12.5241 17.2286 12.3195C17.4332 12.1149 17.7107 12 18 12C18.2893 12 18.5668 12.1149 18.7714 12.3195C18.976 12.5241 19.0909 12.8016 19.0909 13.0909V13.2491C20.7109 13.7291 21.8182 15.2182 21.8182 16.9091V20.1818L22.9091 21.2727ZM19.0909 22.3636C19.0909 22.653 18.976 22.9304 18.7714 23.135C18.5668 23.3396 18.2893 23.4545 18 23.4545C17.7107 23.4545 17.4332 23.3396 17.2286 23.135C17.024 22.9304 16.9091 22.653 16.9091 22.3636M22.2273 12.6491L21.4527 13.4236C21.9141 13.8793 22.2803 14.422 22.5303 15.0204C22.7803 15.6187 22.9091 16.2606 22.9091 16.9091H24C24 15.3109 23.3673 13.7727 22.2273 12.6491ZM12 16.9091H13.0909C13.0909 15.6 13.6146 14.3455 14.5473 13.4236L13.7727 12.6491C13.2098 13.2063 12.7631 13.8699 12.4588 14.6012C12.1545 15.3325 11.9985 16.117 12 16.9091Z" fill="#222222"/>
</svg>
