<svg width="19" height="16" viewBox="0 0 19 16" fill="none" xmlns="http://www.w3.org/2000/svg">
<path d="M17.5622 7.15556V14.2222C17.5622 14.7111 17.3867 15.1296 17.0359 15.4778C16.685 15.8259 16.2633 16 15.7706 16H3.22943C2.73675 16 2.31498 15.8259 1.96412 15.4778C1.61327 15.1296 1.43784 14.7111 1.43784 14.2222V7.15556C1.09445 6.84444 0.829448 6.44444 0.642824 5.95556C0.4562 5.46667 0.452468 4.93333 0.631627 4.35556L1.57221 1.33333C1.69165 0.948148 1.9044 0.62963 2.21047 0.377778C2.51653 0.125926 2.87112 0 3.27422 0H15.7258C16.1289 0 16.4797 0.122222 16.7783 0.366667C17.0769 0.611111 17.2934 0.933333 17.4278 1.33333L18.3684 4.35556C18.5475 4.93333 18.5438 5.45926 18.3572 5.93333C18.1706 6.40741 17.9055 6.81482 17.5622 7.15556ZM11.4707 6.22222C11.8739 6.22222 12.1799 6.08519 12.3889 5.81111C12.598 5.53704 12.6801 5.22963 12.6353 4.88889L12.1426 1.77778H10.3958V5.06667C10.3958 5.37778 10.5003 5.64815 10.7093 5.87778C10.9183 6.10741 11.1722 6.22222 11.4707 6.22222ZM7.43967 6.22222C7.78306 6.22222 8.063 6.10741 8.27948 5.87778C8.49596 5.64815 8.60421 5.37778 8.60421 5.06667V1.77778H6.8574L6.36472 4.88889C6.305 5.24444 6.38338 5.55556 6.59986 5.82222C6.81635 6.08889 7.09628 6.22222 7.43967 6.22222ZM3.45338 6.22222C3.72212 6.22222 3.95727 6.12593 4.15882 5.93333C4.36037 5.74074 4.48355 5.4963 4.52834 5.2L5.02102 1.77778H3.27422L2.37843 4.75556C2.28885 5.05185 2.33737 5.37037 2.52399 5.71111C2.71062 6.05185 3.02041 6.22222 3.45338 6.22222ZM15.5466 6.22222C15.9796 6.22222 16.2931 6.05185 16.4872 5.71111C16.6813 5.37037 16.7261 5.05185 16.6216 4.75556L15.681 1.77778H13.979L14.4717 5.2C14.5165 5.4963 14.6396 5.74074 14.8412 5.93333C15.0427 6.12593 15.2779 6.22222 15.5466 6.22222ZM3.22943 14.2222H15.7706V7.95556C15.6959 7.98519 15.6474 8 15.625 8H15.5466C15.1435 8 14.7889 7.93333 14.4829 7.8C14.1768 7.66667 13.8745 7.45185 13.5759 7.15556C13.3071 7.42222 13.0011 7.62963 12.6577 7.77778C12.3143 7.92593 11.9485 8 11.5603 8C11.1572 8 10.7802 7.92593 10.4294 7.77778C10.0785 7.62963 9.76874 7.42222 9.5 7.15556C9.24619 7.42222 8.95133 7.62963 8.6154 7.77778C8.27948 7.92593 7.91743 8 7.52925 8C7.09628 8 6.70437 7.92593 6.35352 7.77778C6.00267 7.62963 5.69287 7.42222 5.42413 7.15556C5.1106 7.46667 4.80081 7.68519 4.49474 7.81111C4.18868 7.93704 3.84156 8 3.45338 8H3.35261C3.31528 8 3.27422 7.98519 3.22943 7.95556V14.2222Z" fill="#959595"/>
</svg>
