<svg width="19" height="17" viewBox="0 0 19 17" fill="none" xmlns="http://www.w3.org/2000/svg">
<path d="M2.14474 17C1.62368 17 1.17763 16.815 0.806579 16.4451C0.435526 16.0752 0.25 15.6306 0.25 15.1111V1.88889C0.25 1.36944 0.435526 0.924768 0.806579 0.554861C1.17763 0.184953 1.62368 -2.38419e-07 2.14474 -2.38419e-07H15.4079C15.9289 -2.38419e-07 16.375 0.184953 16.7461 0.554861C17.1171 0.924768 17.3026 1.36944 17.3026 1.88889V4.25H15.4079V1.88889H2.14474V15.1111H15.4079V12.75H17.3026V15.1111C17.3026 15.6306 17.1171 16.0752 16.7461 16.4451C16.375 16.815 15.9289 17 15.4079 17H2.14474ZM9.72368 13.2222C9.20263 13.2222 8.75658 13.0373 8.38553 12.6674C8.01447 12.2975 7.82895 11.8528 7.82895 11.3333V5.66667C7.82895 5.14722 8.01447 4.70255 8.38553 4.33264C8.75658 3.96273 9.20263 3.77778 9.72368 3.77778H16.3553C16.8763 3.77778 17.3224 3.96273 17.6934 4.33264C18.0645 4.70255 18.25 5.14722 18.25 5.66667V11.3333C18.25 11.8528 18.0645 12.2975 17.6934 12.6674C17.3224 13.0373 16.8763 13.2222 16.3553 13.2222H9.72368ZM16.3553 11.3333V5.66667H9.72368V11.3333H16.3553ZM12.5658 9.91667C12.9605 9.91667 13.2961 9.77893 13.5724 9.50347C13.8487 9.22801 13.9868 8.89352 13.9868 8.5C13.9868 8.10648 13.8487 7.77199 13.5724 7.49653C13.2961 7.22106 12.9605 7.08333 12.5658 7.08333C12.1711 7.08333 11.8355 7.22106 11.5592 7.49653C11.2829 7.77199 11.1447 8.10648 11.1447 8.5C11.1447 8.89352 11.2829 9.22801 11.5592 9.50347C11.8355 9.77893 12.1711 9.91667 12.5658 9.91667Z" fill="#959595"/>
</svg>
