<svg width="19" height="17" viewBox="0 0 19 17" fill="none" xmlns="http://www.w3.org/2000/svg">
<path d="M2.39474 17C1.87368 17 1.42763 16.815 1.05658 16.4451C0.685526 16.0752 0.5 15.6306 0.5 15.1111V1.88889C0.5 1.36944 0.685526 0.924769 1.05658 0.554861C1.42763 0.184954 1.87368 0 2.39474 0H15.6579C16.1789 0 16.625 0.184954 16.9961 0.554861C17.3671 0.924769 17.5526 1.36944 17.5526 1.88889H9.97368C8.85263 1.88889 7.94079 2.23912 7.23816 2.93958C6.53553 3.64005 6.18421 4.54907 6.18421 5.66667V11.3333C6.18421 12.4509 6.53553 13.36 7.23816 14.0604C7.94079 14.7609 8.85263 15.1111 9.97368 15.1111H17.5526C17.5526 15.6306 17.3671 16.0752 16.9961 16.4451C16.625 16.815 16.1789 17 15.6579 17H2.39474ZM9.97368 13.2222C9.45263 13.2222 9.00658 13.0373 8.63553 12.6674C8.26447 12.2975 8.07895 11.8528 8.07895 11.3333V5.66667C8.07895 5.14722 8.26447 4.70255 8.63553 4.33264C9.00658 3.96273 9.45263 3.77778 9.97368 3.77778H16.6053C17.1263 3.77778 17.5724 3.96273 17.9434 4.33264C18.3145 4.70255 18.5 5.14722 18.5 5.66667V11.3333C18.5 11.8528 18.3145 12.2975 17.9434 12.6674C17.5724 13.0373 17.1263 13.2222 16.6053 13.2222H9.97368ZM12.8158 9.91667C13.2263 9.91667 13.5658 9.78287 13.8342 9.51528C14.1026 9.24768 14.2368 8.90926 14.2368 8.5C14.2368 8.09074 14.1026 7.75231 13.8342 7.48472C13.5658 7.21713 13.2263 7.08333 12.8158 7.08333C12.4053 7.08333 12.0658 7.21713 11.7974 7.48472C11.5289 7.75231 11.3947 8.09074 11.3947 8.5C11.3947 8.90926 11.5289 9.24768 11.7974 9.51528C12.0658 9.78287 12.4053 9.91667 12.8158 9.91667Z" fill="#222222"/>
</svg>
