<svg width="18" height="16" viewBox="0 0 18 16" fill="none" xmlns="http://www.w3.org/2000/svg">
<path d="M17.0622 7.15556V14.2222C17.0622 14.7111 16.8867 15.1296 16.5359 15.4778C16.185 15.8259 15.7633 16 15.2706 16H2.72943C2.23675 16 1.81498 15.8259 1.46412 15.4778C1.11327 15.1296 0.937843 14.7111 0.937843 14.2222V7.15556C0.594455 6.84444 0.329448 6.44444 0.142824 5.95556C-0.0437995 5.46667 -0.047532 4.93333 0.131627 4.35556L1.07221 1.33333C1.19165 0.948148 1.4044 0.62963 1.71047 0.377778C2.01653 0.125926 2.37112 0 2.77422 0H15.2258C15.6289 0 15.9797 0.122222 16.2783 0.366667C16.5769 0.611111 16.7934 0.933333 16.9278 1.33333L17.8684 4.35556C18.0475 4.93333 18.0438 5.45926 17.8572 5.93333C17.6706 6.40741 17.4055 6.81482 17.0622 7.15556ZM10.9707 6.22222C11.3739 6.22222 11.6799 6.08519 11.8889 5.81111C12.098 5.53704 12.1801 5.22963 12.1353 4.88889L11.6426 1.77778H9.89579V5.06667C9.89579 5.37778 10.0003 5.64815 10.2093 5.87778C10.4183 6.10741 10.6722 6.22222 10.9707 6.22222ZM6.93967 6.22222C7.28306 6.22222 7.563 6.10741 7.77948 5.87778C7.99596 5.64815 8.10421 5.37778 8.10421 5.06667V1.77778H6.3574L5.86472 4.88889C5.805 5.24444 5.88338 5.55556 6.09986 5.82222C6.31635 6.08889 6.59628 6.22222 6.93967 6.22222ZM2.95338 6.22222C3.22212 6.22222 3.45727 6.12593 3.65882 5.93333C3.86037 5.74074 3.98355 5.4963 4.02834 5.2L4.52102 1.77778H2.77422L1.87843 4.75556C1.78885 5.05185 1.83737 5.37037 2.02399 5.71111C2.21062 6.05185 2.52041 6.22222 2.95338 6.22222ZM15.0466 6.22222C15.4796 6.22222 15.7931 6.05185 15.9872 5.71111C16.1813 5.37037 16.2261 5.05185 16.1216 4.75556L15.181 1.77778H13.479L13.9717 5.2C14.0165 5.4963 14.1396 5.74074 14.3412 5.93333C14.5427 6.12593 14.7779 6.22222 15.0466 6.22222Z" fill="#222222"/>
</svg>
